<?xml version="1.0" encoding="UTF-8" standalone="no"?>
<svg
   xmlns:dc="http://purl.org/dc/elements/1.1/"
   xmlns:cc="http://creativecommons.org/ns#"
   xmlns:rdf="http://www.w3.org/1999/02/22-rdf-syntax-ns#"
   xmlns:svg="http://www.w3.org/2000/svg"
   xmlns="http://www.w3.org/2000/svg"
   version="1.1"
   id="svg4193"
   viewBox="0 0 223.77755 63.779527"
   height="18mm"
   width="63.154999mm">
  <defs
     id="defs4195">
    <clipPath
       id="clipPath542"
       clipPathUnits="userSpaceOnUse">
      <path
         id="path544"
         d="m 386.835,727.032 0,65.302 -18.615,0 0,-65.302 18.615,0" />
    </clipPath>
  </defs>
  <metadata
     id="metadata4198">
    <rdf:RDF>
      <cc:Work
         rdf:about="">
        <dc:format>image/svg+xml</dc:format>
        <dc:type
           rdf:resource="http://purl.org/dc/dcmitype/StillImage" />
        <dc:title></dc:title>
      </cc:Work>
    </rdf:RDF>
  </metadata>
  <g
     transform="translate(0,-988.58266)"
     id="layer1">
    <g
       transform="matrix(0,3.426796,3.426796,0,-2491.3903,-273.23559)"
       id="g4946"
       style="display:inline">
      <g
         transform="translate(372.334,788.983)"
         id="g4948">
        <path
           id="path4950"
           style="fill:#ffffff;fill-opacity:1;fill-rule:nonzero;stroke:none"
           d="m 0,0 0,0.157 -0.15,0 0,-0.258 0.444,0 L 0.294,0 0,0 Z m 0,-0.474 0,0.156 -0.15,0 0,-0.261 0.444,0 0,0.105 -0.294,0 z m -4.113,-8.389 11.91,0 0,6.239 -3.582,0 0,1.067 3.582,0 0,0.146 -3.921,0 0,1.939 3.921,0 0,0.131 -3.582,0 0,1.068 3.582,0 0,1.432 -11.91,0 0,-12.022 z m 2.017,8.414 0.643,1.068 0,-2.129 -0.643,1.061 z m 0.766,-1.069 0,2.137 0.783,0.112 0,-2.357 -0.783,0.108 z m 5.421,3.011 0,-0.834 -0.338,0 0,-2.216 0.338,0 0,-0.833 -0.75,0 0,0.149 -2.474,0 0,0.236 -1.283,0 0,3.119 1.283,0 0,0.237 2.474,0 0,0.142 0.75,0 z m -0.75,-1.42 0,0.174 -1.64,0 0,0.393 -0.295,0 0,-0.576 1.935,0.009 z m -2.208,-1.8 0,2.562 -0.164,0.125 0,-2.796 0.164,0.109 z m 2.208,0.991 0,0.176 -1.64,0 0,0.391 -0.295,0 0,-0.573 1.935,0.006 z M 0,-0.951 l 0,0.158 -0.15,0 0,-0.26 0.444,0 0,0.102 -0.294,0 z m 3.341,-0.592 0,0.178 -1.64,0 0,0.387 -0.295,0 0,-0.573 1.935,0.008 z m 1.049,1.102 c 0,-0.301 0.243,-0.542 0.541,-0.542 0.298,0 0.54,0.241 0.54,0.542 0,0.297 -0.242,0.54 -0.54,0.54 -0.298,0 -0.541,-0.243 -0.541,-0.54 m 0.964,0 c 0,-0.234 -0.19,-0.423 -0.423,-0.423 -0.233,0 -0.423,0.189 -0.423,0.423 0,0.234 0.19,0.422 0.423,0.422 0.233,0 0.423,-0.188 0.423,-0.422" />
      </g>
      <g
         transform="translate(385.06,730.807)"
         id="g4952">
        <path
           id="path4954"
           style="fill:#ffffff;fill-opacity:1;fill-rule:nonzero;stroke:none"
           d="m 0,0 -2.671,0 0,-0.908 2.731,0 c 0.284,0 0.518,-0.067 0.674,-0.221 C 0.916,-1.287 1.01,-1.543 1.01,-1.89 1.01,-2.198 0.916,-2.466 0.734,-2.624 0.571,-2.772 0.336,-2.872 0.018,-2.872 l -2.689,0 0,-0.903 2.764,0 c 0.511,0 0.942,0.139 1.228,0.431 0.307,0.315 0.452,0.792 0.452,1.436 0,0.668 -0.179,1.138 -0.504,1.466 C 0.969,-0.146 0.532,0 0,0" />
      </g>
      <g
         transform="translate(386.769,736.056)"
         id="g4956">
        <path
           id="path4958"
           style="fill:#ffffff;fill-opacity:1;fill-rule:evenodd;stroke:none"
           d="m 0,0 -4.38,0 0,-0.906 2.233,0 c 0.185,0 0.469,0 0.678,0.014 l 0,-0.014 c -0.179,-0.119 -0.355,-0.24 -0.574,-0.412 l -2.337,-1.837 0,-0.919 4.38,0 0,0.907 -2.401,0 c -0.198,0 -0.463,0 -0.609,-0.015 l 0,0.015 c 0.191,0.129 0.363,0.252 0.576,0.419 L 0,-0.847" />
      </g>
      <path
         id="path4960"
         style="fill:#ffffff;fill-opacity:1;fill-rule:nonzero;stroke:none"
         d="m 382.389,737.285 4.379,0 0,0.913 -4.379,0 0,-0.913 z" />
      <g
         transform="translate(382.389,743.074)"
         id="g4962">
        <path
           id="path4964"
           style="fill:#ffffff;fill-opacity:1;fill-rule:nonzero;stroke:none"
           d="m 0,0 0,-0.933 2.354,-0.991 c 0.293,-0.121 0.548,-0.221 0.787,-0.293 l 0,-0.013 C 2.893,-2.318 2.615,-2.417 2.33,-2.531 L 0,-3.423 l 0,-0.998 4.413,1.798 0,0.679" />
      </g>
      <g
         transform="translate(386.769,746.127)"
         id="g4966">
        <path
           id="path4968"
           style="fill:#ffffff;fill-opacity:1;fill-rule:nonzero;stroke:none"
           d="m 0,0 -0.747,0 0,-1.625 -1.117,0 0,1.397 -0.752,0 0,-1.397 -1.019,0 0,1.391 -0.745,0.24 0,-2.542 4.38,0" />
      </g>
      <g
         transform="translate(386.769,750.503)"
         id="g4970">
        <path
           id="path4972"
           style="fill:#ffffff;fill-opacity:1;fill-rule:evenodd;stroke:none"
           d="m 0,0 c -1.117,-0.659 -1.857,-1.084 -1.983,-1.307 l -0.01,0 c -0.178,0.408 -0.563,0.797 -1.132,0.797 -0.677,0 -1.255,-0.422 -1.255,-1.593 l 0,-1.278 4.38,0 0,0.913 -1.693,0 0,0.339 c 0.06,0.158 0.555,0.424 1.693,1.09 L 0,0 Z m -3.026,-1.412 c 0.378,0 0.667,-0.288 0.667,-0.672 l 0,-0.384 -1.262,0 0,0.384 c 0,0.431 0.259,0.672 0.595,0.672" />
      </g>
      <g
         transform="translate(385.534,753.691)"
         id="g4974">
        <path
           id="path4976"
           style="fill:#ffffff;fill-opacity:1;fill-rule:nonzero;stroke:none"
           d="m 0,0 c -1.375,0 -1.307,-1.885 -2.068,-1.885 -0.253,0 -0.399,0.254 -0.399,0.579 0,0.358 0.12,0.674 0.321,1.045 l -0.787,0.015 C -3.078,-0.5 -3.198,-0.888 -3.198,-1.35 c 0,-0.966 0.584,-1.492 1.251,-1.492 0.338,0 0.585,0.112 0.778,0.278 0.606,0.535 0.704,1.599 1.287,1.599 0.33,0 0.448,-0.356 0.448,-0.68 0,-0.399 -0.159,-0.73 -0.338,-1.005 l 0.659,-0.353 c 0.206,0.316 0.412,0.765 0.412,1.398 C 1.299,-0.706 0.801,0 0,0" />
      </g>
      <path
         id="path4978"
         style="fill:#ffffff;fill-opacity:1;fill-rule:nonzero;stroke:none"
         d="m 382.389,754.43 4.379,0 0,0.911 -4.379,0 0,-0.911 z" />
      <g
         transform="translate(382.389,759.565)"
         id="g4980">
        <path
           id="path4982"
           style="fill:#ffffff;fill-opacity:1;fill-rule:nonzero;stroke:none"
           d="m 0,0 0,-3.584 0.745,0 0,1.283 3.635,0 0,0.919 -3.635,0 0,1.176" />
      </g>
      <g
         transform="translate(382.389,763.565)"
         id="g4984">
        <path
           id="path4986"
           style="fill:#ffffff;fill-opacity:1;fill-rule:nonzero;stroke:none"
           d="m 0,0 0,-0.952 1.235,-0.669 c 0.184,-0.101 0.418,-0.223 0.618,-0.316 l 0,-0.012 C 1.653,-2.042 1.408,-2.169 1.222,-2.272 L 0,-2.94 l 0,-1.005 2.644,1.518 1.736,0 0,0.911 -1.722,0" />
      </g>
      <g
         transform="translate(384.572,769.873)"
         id="g4988">
        <path
           id="path4990"
           style="fill:#ffffff;fill-opacity:1;fill-rule:evenodd;stroke:none"
           d="m 0,0 c -0.613,0 -1.159,-0.187 -1.558,-0.552 -0.425,-0.394 -0.679,-0.991 -0.679,-1.714 0,-0.671 0.245,-1.231 0.653,-1.628 0.411,-0.405 0.991,-0.633 1.637,-0.633 0.678,0 1.271,0.246 1.676,0.699 0.346,0.389 0.532,0.921 0.532,1.562 0,0.69 -0.246,1.248 -0.653,1.652 C 1.211,-0.214 0.631,0 0,0 m 0.02,-0.966 c 0.959,0 1.508,-0.552 1.508,-1.3 0,-0.756 -0.549,-1.31 -1.508,-1.31 -0.959,0 -1.51,0.554 -1.51,1.31 0,0.759 0.564,1.3 1.51,1.3" />
      </g>
      <g
         transform="translate(382.389,773.264)"
         id="g4992">
        <path
           id="path4994"
           style="fill:#ffffff;fill-opacity:1;fill-rule:nonzero;stroke:none"
           d="m 0,0 0,-2.548 4.38,0 0,0.914 -1.851,0 0,1.386 -0.746,-0.004 0,-1.382 -1.038,0 0,1.4" />
      </g>
      <g
         transform="translate(386.763,777.921)"
         id="g4996">
        <path
           id="path4998"
           style="fill:#ffffff;fill-opacity:1;fill-rule:nonzero;stroke:none"
           d="m 0,0 -0.75,0 0,-1.539 -3.616,0 0,-0.902 4.366,0" />
      </g>
      <g
         transform="translate(386.763,781.048)"
         id="g5000">
        <path
           id="path5002"
           style="fill:#ffffff;fill-opacity:1;fill-rule:nonzero;stroke:none"
           d="m 0,0 -0.743,0 0,-1.62 -1.116,0 0,1.392 -0.749,0 0,-1.392 -1.017,0 0,1.386 -0.741,0.241 0,-2.538 4.366,0" />
      </g>
      <g
         transform="translate(386.763,784.364)"
         id="g5004">
        <path
           id="path5006"
           style="fill:#ffffff;fill-opacity:1;fill-rule:nonzero;stroke:none"
           d="m 0,0 -0.743,0 0,-1.618 -1.116,0 0,1.393 -0.749,0 0,-1.393 -1.017,0 0,1.387 -0.741,0.236 0,-2.533 4.366,0" />
      </g>
      <g
         transform="translate(384.544,789.042)"
         id="g5008">
        <path
           id="path5010"
           style="fill:#ffffff;fill-opacity:1;fill-rule:evenodd;stroke:none"
           d="m 0,0 c -1.306,0 -2.147,-0.876 -2.147,-2.435 l 0,-1.454 4.366,0 0,1.373 C 2.219,-1.001 1.342,0 0,0 m 0.024,-0.976 c 0.764,0 1.445,-0.423 1.445,-1.504 l 0,-0.499 -2.861,0 0,0.484 c 0,1.002 0.557,1.519 1.416,1.519" />
      </g>
      <g
         id="g5012">
        <g
           clip-path="url(#clipPath542)"
           id="g5014">
          <g
             transform="translate(385.535,792.335)"
             id="g5016">
            <path
               id="path5018"
               style="fill:#ffffff;fill-opacity:1;fill-rule:nonzero;stroke:none"
               d="m 0,0 c -1.374,0 -1.307,-1.879 -2.062,-1.879 -0.254,0 -0.399,0.251 -0.399,0.578 0,0.357 0.118,0.669 0.318,1.042 l -0.784,0.012 c -0.146,-0.252 -0.266,-0.637 -0.266,-1.103 0,-0.962 0.585,-1.487 1.248,-1.487 0.339,0 0.584,0.115 0.777,0.281 0.604,0.531 0.703,1.592 1.282,1.592 0.331,0 0.45,-0.359 0.45,-0.677 0,-0.398 -0.158,-0.729 -0.34,-1.001 L 0.882,-2.995 C 1.088,-2.681 1.293,-2.232 1.293,-1.6 1.293,-0.705 0.796,0 0,0" />
          </g>
        </g>
      </g>
    </g>
  </g>
</svg>
